<svg t="1588884243401" class="icon" viewBox="0 0 1024 1024" version="1.1" xmlns="http://www.w3.org/2000/svg" p-id="5167" width="36" height="36"><path d="M234.704 420.736l49.504-49.504a40 40 0 0 0 11.712-28.288v-70.016a40 40 0 0 1 40-40h70a40 40 0 0 0 28.288-11.712l49.504-49.504a40.016 40.016 0 0 1 56.576 0l49.504 49.504a40 40 0 0 0 28.288 11.712h70.016a40 40 0 0 1 40 40v70.016a40 40 0 0 0 11.712 28.288l49.504 49.504a40.016 40.016 0 0 1 0 56.576l-49.504 49.504a40 40 0 0 0-11.712 28.288v70a40 40 0 0 1-40 40H618.08a40 40 0 0 0-28.288 11.712l-49.504 49.504a40.016 40.016 0 0 1-56.576 0L434.208 676.8a40 40 0 0 0-28.288-11.712h-70a40 40 0 0 1-40-40v-70a40 40 0 0 0-11.712-28.288l-49.504-49.504a40 40 0 0 1 0-56.56z" fill="#FFD740" p-id="5168"></path><path d="M512 746a47.872 47.872 0 0 1-33.952-14.032l-49.504-49.504a31.776 31.776 0 0 0-22.624-9.376h-70c-26.464 0-48-21.536-48-48v-70.016c0-8.544-3.328-16.576-9.376-22.624l-49.504-49.504a47.696 47.696 0 0 1-14.048-33.936c0-12.832 4.992-24.88 14.048-33.936l49.504-49.504c6.048-6.048 9.376-14.096 9.376-22.64v-70c0-26.464 21.536-48 48-48h70c8.544 0 16.576-3.328 22.624-9.376l49.504-49.504c18.144-18.128 49.76-18.128 67.888 0l49.504 49.504c6.048 6.048 14.08 9.376 22.624 9.376h70c26.464 0 48 21.536 48 48v70c0 8.544 3.328 16.592 9.376 22.64l49.504 49.504a47.68 47.68 0 0 1 14.048 33.936c0 12.816-4.992 24.88-14.048 33.936l-49.504 49.504c-6.048 6.048-9.376 14.08-9.376 22.624v70.016c0 26.464-21.536 48-48 48h-70c-8.544 0-16.576 3.328-22.624 9.376l-49.504 49.504a47.84 47.84 0 0 1-33.936 14.032zM335.92 240.944c-17.648 0-32 14.352-32 32v70c0 12.816-4.992 24.88-14.064 33.952l-49.504 49.504c-6.032 6.048-9.36 14.08-9.36 22.624s3.328 16.576 9.36 22.624l49.504 49.504c9.072 9.056 14.064 21.104 14.064 33.936v70.016c0 17.648 14.352 32 32 32h70a47.68 47.68 0 0 1 33.936 14.064l49.504 49.504c12.48 12.464 32.784 12.464 45.264 0l49.504-49.504a47.744 47.744 0 0 1 33.936-14.064h70c17.648 0 32-14.352 32-32v-70.016c0-12.832 4.992-24.88 14.064-33.936l49.504-49.504c6.032-6.048 9.36-14.08 9.36-22.624s-3.328-16.576-9.36-22.624l-49.504-49.504a47.712 47.712 0 0 1-14.064-33.952v-70c0-17.648-14.352-32-32-32h-70a47.68 47.68 0 0 1-33.936-14.064l-49.504-49.504c-12.096-12.096-33.168-12.096-45.264 0l-49.504 49.504a47.744 47.744 0 0 1-33.936 14.064h-70z m-101.216 179.792h0.16-0.16z" fill="#263238" p-id="5169"></path><path d="M618.064 697.088a8.016 8.016 0 0 0-5.664 2.336l-49.504 49.504a71.776 71.776 0 0 1-22.96 15.44L607.728 928l43.296-104.528 104.528 43.296-70.288-169.696h-67.2zM461.088 748.928l-49.504-49.504a7.92 7.92 0 0 0-5.664-2.336h-67.184l-70.288 169.696 104.528-43.296L416.272 928l67.776-163.632a71.68 71.68 0 0 1-22.96-15.44z" fill="#FF5252" p-id="5170"></path><path d="M607.728 936a8 8 0 0 1-7.392-4.944l-67.776-163.632a8 8 0 0 1 14.784-6.112l60.384 145.776 35.904-86.672a8 8 0 0 1 10.448-4.336l86.672 35.904-62.896-151.856a8 8 0 0 1 14.784-6.112l70.288 169.696a7.984 7.984 0 0 1-10.448 10.448l-97.136-40.24-40.24 97.12a7.952 7.952 0 0 1-7.376 4.96zM416.272 936a8 8 0 0 1-7.392-4.944l-40.24-97.12-97.136 40.24a8.016 8.016 0 0 1-10.448-10.448l70.288-169.696a8 8 0 0 1 14.784 6.112l-62.896 151.856 86.672-35.904a8 8 0 0 1 10.448 4.336l35.904 86.672 60.384-145.776a8 8 0 0 1 14.784 6.112l-67.776 163.632a7.968 7.968 0 0 1-7.376 4.928zM512 617.008c-92.64 0-168-75.36-168-168s75.36-168 168-168 168 75.36 168 168-75.36 168-168 168z m0-320c-83.808 0-152 68.192-152 152s68.192 152 152 152 152-68.192 152-152-68.192-152-152-152z" fill="#263238" p-id="5171"></path><path d="M624 457.008a8 8 0 0 1-8-8c0-57.344-46.656-104-104-104a8 8 0 0 1 0-16c66.176 0 120 53.824 120 120a8 8 0 0 1-8 8zM761.008 136h-64a8 8 0 0 1 0-16h64a8 8 0 0 1 0 16z" fill="#263238" p-id="5172"></path><path d="M729.008 168a8 8 0 0 1-8-8V96a8 8 0 0 1 16 0v64a8 8 0 0 1-8 8zM857.008 216h-64a8 8 0 0 1 0-16h64a8 8 0 0 1 0 16z" fill="#263238" p-id="5173"></path><path d="M825.008 248a8 8 0 0 1-8-8v-64a8 8 0 0 1 16 0v64a8 8 0 0 1-8 8zM200 592H80a8 8 0 0 1 0-16h120a8 8 0 0 1 0 16zM48 592H32a8 8 0 0 1 0-16h16a8 8 0 0 1 0 16zM944 592h-120a8 8 0 0 1 0-16H944a8 8 0 0 1 0 16z" fill="#263238" p-id="5174"></path><path d="M992 592h-16a8 8 0 0 1 0-16h16a8 8 0 0 1 0 16z" fill="#263238" p-id="5175"></path></svg>