<?xml version="1.0" standalone="no"?><!DOCTYPE svg PUBLIC "-//W3C//DTD SVG 1.1//EN" "http://www.w3.org/Graphics/SVG/1.1/DTD/svg11.dtd"><svg t="1582239963806" class="icon" viewBox="0 0 1024 1024" version="1.1" xmlns="http://www.w3.org/2000/svg" p-id="3510" xmlns:xlink="http://www.w3.org/1999/xlink" width="70" height="70"><defs><style type="text/css"></style></defs><path d="M490.667164 917.332409H64.00192l-42.666524-42.666525V149.334969l42.666524-42.666525h426.665244l42.666525 42.666525v725.330915z" fill="#FC8470" p-id="3511"></path><path d="M746.666311 448.00064a170.666098 127.999573 90 1 0 255.999147 0 170.666098 127.999573 90 1 0-255.999147 0Z" fill="#F1F2F2" p-id="3512"></path><path d="M874.665884 618.666738v341.332195a42.794524 42.794524 0 0 1-42.666524 42.666525H512.000427a42.794524 42.794524 0 0 1-42.666525-42.666525V618.666738h405.331982z" fill="#71D4C9" p-id="3513"></path><path d="M512.000427 1002.665458H64.00192a41.706528 41.706528 0 0 1-30.0799-12.586625A41.706528 41.706528 0 0 1 21.335396 959.998933a42.794524 42.794524 0 0 1 42.666524-42.666524h405.331982v42.666524a42.794524 42.794524 0 0 0 42.666525 42.666525zM490.667164 21.335396a42.794524 42.794524 0 0 1 42.666525 42.666524 41.706528 41.706528 0 0 1-12.586625 30.0799A41.706528 41.706528 0 0 1 490.667164 106.668444H64.00192a42.794524 42.794524 0 0 1-42.666524-42.666524 41.706528 41.706528 0 0 1 12.586624-30.0799A41.706528 41.706528 0 0 1 64.00192 21.335396z" fill="#A4B0C0" p-id="3514"></path><path d="M277.334542 512.000427m-149.332835 0a149.332836 149.332836 0 1 0 298.665671 0 149.332836 149.332836 0 1 0-298.665671 0Z" fill="#F1F2F2" p-id="3515"></path><path d="M554.666951 256.00128h-42.666524V158.166939l-36.415879-36.415878 30.165233-30.165233 42.666524 42.666524A21.333262 21.333262 0 0 1 554.666951 149.334969zM48.919304 932.415025l-42.666525-42.666524A21.333262 21.333262 0 0 1 0.002133 874.665884V149.334969a21.333262 21.333262 0 0 1 6.250646-15.082617l42.666525-42.666524 30.165232 30.165233L42.668658 158.166939v707.666975l36.415878 36.415879z" fill="#2A3244" p-id="3516"></path><path d="M512.000427 1023.99872H64.00192a62.655791 62.655791 0 0 1-45.375849-19.050603A62.293126 62.293126 0 0 1 0.002133 959.998933a63.999787 63.999787 0 0 1 63.999787-63.999786h405.331982v42.666524H64.00192a21.333262 21.333262 0 0 0-21.333262 21.333262 20.458598 20.458598 0 0 0 6.122646 14.783951A20.842597 20.842597 0 0 0 64.00192 981.332196h447.998507zM490.667164 128.001707H64.00192a63.999787 63.999787 0 0 1-63.999787-63.999787A62.655791 62.655791 0 0 1 19.052736 18.626071 62.293126 62.293126 0 0 1 64.00192 0.002133h426.665244a63.999787 63.999787 0 0 1 63.999787 63.999787 62.655791 62.655791 0 0 1-19.050603 45.375849A62.293126 62.293126 0 0 1 490.667164 128.001707zM64.00192 42.668658a20.458598 20.458598 0 0 0-14.783951 6.122646A20.842597 20.842597 0 0 0 42.668658 64.00192a21.333262 21.333262 0 0 0 21.333262 21.333262h426.665244a20.458598 20.458598 0 0 0 14.783951-6.122646A20.842597 20.842597 0 0 0 512.000427 64.00192a21.333262 21.333262 0 0 0-21.333263-21.333262z" fill="#2A3244" p-id="3517"></path><path d="M831.99936 1023.99872H512.000427a63.999787 63.999787 0 0 1-63.999787-63.999787V618.666738a21.333262 21.333262 0 0 1 21.333262-21.333262h405.331982a21.333262 21.333262 0 0 1 21.333263 21.333262v341.332195a63.999787 63.999787 0 0 1-63.999787 63.999787zM490.667164 640v319.998933a21.333262 21.333262 0 0 0 21.333263 21.333263h319.998933a21.333262 21.333262 0 0 0 21.333262-21.333263V640z" fill="#2A3244" p-id="3518"></path><path d="M874.665884 640c-82.325059 0-149.332836-86.12238-149.332835-191.99936s67.007777-191.99936 149.332835-191.99936 149.332836 86.12238 149.332836 191.99936-67.007777 191.99936-149.332836 191.99936z m0-341.332196c-58.815804 0-106.666311 67.007777-106.666311 149.332836s47.850507 149.332836 106.666311 149.332836 106.666311-67.007777 106.666312-149.332836-47.850507-149.332836-106.666312-149.332836z" fill="#2A3244" p-id="3519"></path><path d="M874.665884 554.666951c-47.850507 0-85.333049-46.933177-85.333048-106.666311h42.666524c0 34.687884 19.541268 63.999787 42.666524 63.999787s42.666524-29.311902 42.666525-63.999787-19.541268-63.999787-42.666525-63.999787v-42.666524c47.850507 0 85.333049 46.933177 85.333049 106.666311s-37.482542 106.666311-85.333049 106.666311zM277.334542 682.666524a170.666098 170.666098 0 1 1 170.666098-170.666097 170.858097 170.858097 0 0 1-170.666098 170.666097z m0-298.665671a127.999573 127.999573 0 1 0 127.999574 127.999574 128.127573 128.127573 0 0 0-127.999574-127.999574zM469.333902 682.666524h341.332196v42.666525H469.333902zM21.335396 170.668231h447.998506v42.666525H21.335396zM21.335396 810.666098h447.998506v42.666524H21.335396zM703.999787 576.000213h-42.666525c0-11.989293-4.629318-17.06661-15.082616-27.583908a74.239753 74.239753 0 0 1 0-115.498281c10.453298-10.453298 15.082616-15.594615 15.082616-27.583908s-4.629318-17.06661-15.082616-27.583909A76.031747 76.031747 0 0 1 618.666738 320.001067h42.666524c0 11.989293 4.629318 17.06661 15.082617 27.583908a74.239753 74.239753 0 0 1 0 115.498281C665.96258 473.600555 661.333262 478.677871 661.333262 490.667164s4.629318 17.06661 15.082617 27.583908A76.031747 76.031747 0 0 1 703.999787 576.000213zM597.333476 576.000213h-42.666525c0-11.989293-4.629318-17.06661-15.082616-27.583908a74.239753 74.239753 0 0 1 0-115.498281c10.453298-10.453298 15.082616-15.594615 15.082616-27.583908s-4.629318-17.06661-15.082616-27.583909A76.031747 76.031747 0 0 1 512.000427 320.001067h42.666524c0 11.989293 4.629318 17.06661 15.082617 27.583908a74.239753 74.239753 0 0 1 0 115.498281C559.296269 473.600555 554.666951 478.677871 554.666951 490.667164s4.629318 17.06661 15.082617 27.583908A76.031747 76.031747 0 0 1 597.333476 576.000213z" fill="#2A3244" p-id="3520"></path></svg>