<?xml version="1.0" standalone="no"?><!DOCTYPE svg PUBLIC "-//W3C//DTD SVG 1.1//EN" "http://www.w3.org/Graphics/SVG/1.1/DTD/svg11.dtd"><svg t="1582240620621" class="icon" viewBox="0 0 1024 1024" version="1.1" xmlns="http://www.w3.org/2000/svg" p-id="4501" xmlns:xlink="http://www.w3.org/1999/xlink" width="70" height="70"><defs><style type="text/css"></style></defs><path d="M920.496 440.696H935.024c31.272 0 57.648-20.84 66.096-49.376a71.568 71.568 0 0 0 3.592-22.328v-61.28a77.728 77.728 0 0 0-3.688-23.68c-8.896-30.984-37.192-53.72-70.92-54.184-31.6-84.168-112.784-144.08-207.992-144.08H366.36c-95.208 0-176.392 59.912-207.992 144.08-40.896 0.568-73.88 33.848-73.88 74.88v67.016a68.96 68.96 0 0 0 68.952 68.952h14.52c1.752 0 3.472-0.096 5.192-0.224v263.576h-34.56c-18.544 0-35.104 13.56-36.864 32.016a35.512 35.512 0 0 0 35.336 38.992h16.592v186.464a29.648 29.648 0 0 0 29.648 29.648h735.688a29.648 29.648 0 0 0 29.648-29.648V775.056h1.944c18.544 0 35.104-13.552 36.864-32.016a35.504 35.504 0 0 0-35.336-38.992h-63.48V432.832a68.472 68.472 0 0 0 31.864 7.864zM689.336 585.472h-2.624c1.16-0.272 2.248-0.728 3.384-1.064-0.12 0.36-0.248 0.712-0.336 1.088-0.144 0-0.288-0.024-0.424-0.024zM214.832 422.24a68.96 68.96 0 0 0 20.152-34.528h4.384c1.528 5.6 3.656 10.944 6.416 15.912a68.824 68.824 0 0 0 61.064 37.072h14.52a68.816 68.816 0 0 0 61.064-37.072 71.408 71.408 0 0 0 6.416-15.912h3.776a71.656 71.656 0 0 0 8.816 19.84 68.752 68.752 0 0 0 58.816 33.144H474.776a68.752 68.752 0 0 0 58.816-33.144 71.656 71.656 0 0 0 8.816-19.84h3.168a71.912 71.912 0 0 0 16.296 29.432c0.456 0.528 0.928 1.032 1.4 1.544 0.424 0.44 0.84 0.88 1.28 1.312a68.528 68.528 0 0 0 49.12 20.704h4.304c-6.496 7.08-11.792 15.28-15.16 24.48-11.952 8.504-32.936 0.928-32.936 5.744 0 6.904 8.44 23.688 23.36 26.344 1.784 0.32 3.456 0.536 5.08 0.704v20.576a17.6 17.6 0 0 0-0.888 5.504c0 7.216 4.144 13.072 9.264 13.072a7.24 7.24 0 0 0 4.536-1.744 62.184 62.184 0 0 0 47.048 50.096h-2.624c-44.12 0-79.88 35.76-79.88 79.88v38.696H214.832V422.24z m631.936 281.808V574.384h-136.72a62 62 0 0 0 23.712-39c1.344 1.08 2.88 1.744 4.536 1.744 5.112 0 9.264-5.856 9.264-13.072a17.6 17.6 0 0 0-0.888-5.504v-27.88c0-31.576-19.76-58.488-47.56-69.184a20.088 20.088 0 0 0-5.16-10.944 22.832 22.832 0 0 0-1.816-11.552c1.688-3.608 3.08-7.368 4.152-11.264h3.192c1.872 6.856 4.72 13.296 8.408 19.168 12 20.224 33.976 33.816 59.2 33.816h14.528c25.232 0 47.216-13.6 59.216-33.832a71.576 71.576 0 0 0 8.4-19.152h4.152c0.432 1.592 0.904 3.168 1.44 4.72 0.248 0.776 0.512 1.544 0.784 2.304h-8.632v309.312h-0.208z" fill="#E6E7E8" p-id="4502"></path><path d="M298.192 629.952a34.728 34.728 0 1 0 0 69.456 34.728 34.728 0 0 0 0-69.456zM374.6 629.952a34.736 34.736 0 1 0 0 69.472 34.736 34.736 0 0 0 0-69.472z" fill="#E6E7E8" p-id="4503"></path><path d="M446.384 629.952a34.736 34.736 0 1 0 0 69.472 34.736 34.736 0 0 0 0-69.472zM522.792 629.952a34.728 34.728 0 1 0 0 69.456 34.728 34.728 0 0 0 0-69.456z" fill="#E6E7E8" p-id="4504"></path><path d="M632.568 540.56c-0.144 0-0.28-0.024-0.424-0.024h-2.624c1.16-0.272 2.248-0.728 3.384-1.064a14.456 14.456 0 0 1 13.728-10.032h6.224a62 62 0 0 0 23.712-39c1.344 1.08 2.88 1.744 4.536 1.744 5.112 0 9.264-5.856 9.264-13.072a17.6 17.6 0 0 0-0.888-5.504v-27.88c0-31.576-19.76-58.488-47.56-69.184a20.088 20.088 0 0 0-5.16-10.944 22.88 22.88 0 0 0-1.816-11.56c-11.504 24.624-36.416 41.72-65.384 41.72h-8.768c-6.496 7.08-11.792 15.28-15.16 24.48-11.952 8.504-32.936 0.928-32.936 5.744 0 6.904 8.44 23.688 23.36 26.344 1.784 0.32 3.456 0.536 5.08 0.704v20.576a17.6 17.6 0 0 0-0.888 5.504c0 7.216 4.144 13.072 9.264 13.072a7.24 7.24 0 0 0 4.536-1.744 62.184 62.184 0 0 0 47.048 50.096h-2.624c-44.12 0-79.88 35.768-79.88 79.88v38.696h113.528V543.952c0-1.168 0.184-2.296 0.448-3.392z" fill="#D4FBFF" p-id="4505"></path><path d="M789.576 659.112V529.448H646.632a14.512 14.512 0 0 0-14.512 14.512V659.12h157.456z" fill="#6DC9F7" p-id="4506"></path><path d="M157.64 659.112V375.936a71.056 71.056 0 0 1-41.68 19.408v263.768h41.68zM831.448 659.112v-271.92a71.856 71.856 0 0 1-32.968-37.384h-8.712V659.12h41.68z" fill="#D4FBFF" p-id="4507"></path><path d="M104.848 184.856h764.744c1.136 0 2.232 0.12 3.352 0.168C841.376 100.8 760.16 40.832 664.912 40.832H309.168c-95.256 0-176.48 59.976-208.04 144.216 1.24-0.064 2.464-0.192 3.72-0.192z" fill="#FA759E" p-id="4508"></path><path d="M108.368 395.76h-9.704a71.36 71.36 0 0 1-71.368-71.368V262.4a77.552 77.552 0 0 1 77.552-77.552h74.88V324.4a71.36 71.36 0 0 1-71.36 71.36z" fill="#FA759E" p-id="4509"></path><path d="M262.376 395.76h-10.904a71.888 71.888 0 0 1-71.888-71.888V184.856h154.68v139.016a71.888 71.888 0 0 1-71.888 71.888z" fill="#FFD7E5" p-id="4510"></path><path d="M415.872 395.76h-11.08a71.968 71.968 0 0 1-71.968-71.968V184.856H487.84v138.936a71.968 71.968 0 0 1-71.968 71.968z" fill="#FA759E" p-id="4511"></path><path d="M569.56 395.76h-11.632a72.2 72.2 0 0 1-72.2-72.2V184.856H641.76v138.704a72.192 72.192 0 0 1-72.2 72.2z" fill="#FFD7E5" p-id="4512"></path><path d="M722.68 395.76h-11.056a71.952 71.952 0 0 1-71.952-71.952V184.856h154.96v138.952a71.944 71.944 0 0 1-71.952 71.952z" fill="#FA759E" p-id="4513"></path><path d="M875.808 395.76h-10.48a71.704 71.704 0 0 1-71.704-71.704v-139.2h75.968c43.032 0 77.92 34.888 77.92 77.92v61.28a71.704 71.704 0 0 1-71.704 71.704z" fill="#FFD7E5" p-id="4514"></path><path d="M96.472 730.12v180.336a35.776 35.776 0 0 0 35.776 35.776h723.432a35.776 35.776 0 0 0 35.776-35.776V730.12H96.472z" fill="#FA759E" p-id="4515"></path><path d="M894.928 659.112H79.88a35.504 35.504 0 0 0 0 71.008h815.048a35.504 35.504 0 0 0 0-71.008z" fill="#FFFFFF" p-id="4516"></path><path d="M894.928 683.112H79.88a35.504 35.504 0 0 0 0 71.008h815.048a35.504 35.504 0 0 0 0-71.008z" fill="#FFD7E5" p-id="4517"></path><path d="M241 585.016a34.736 34.736 0 1 0 0.016 69.472 34.736 34.736 0 0 0-0.016-69.472z" fill="#6DC9F7" p-id="4518"></path><path d="M317.408 585.016a34.736 34.736 0 1 0 0 69.472 34.736 34.736 0 0 0 0-69.472z" fill="#FA759E" p-id="4519"></path><path d="M389.192 585.016a34.736 34.736 0 1 0 0 69.472 34.736 34.736 0 0 0 0-69.472z" fill="#6DC9F7" p-id="4520"></path><path d="M465.6 585.016a34.736 34.736 0 1 0 0.016 69.472 34.736 34.736 0 0 0-0.016-69.472z" fill="#FA759E" p-id="4521"></path><path d="M161.128 192.856h68.496a8 8 0 1 0 0-16h-68.496a8 8 0 1 0 0 16z" fill="#3A2C60" p-id="4522"></path><path d="M863.304 403.76h14.52c42.432 0 76.952-34.52 76.952-76.952v-67.016c0-43.576-33.8-79.328-76.552-82.608-34.088-84.488-116.76-144.352-213.32-144.352H309.176c-96.56 0-179.224 59.864-213.328 144.352-42.744 3.28-76.552 39.032-76.552 82.608v67.016c0 42.432 34.52 76.952 76.952 76.952h11.712v247.352h-28.08c-23.992 0-43.504 19.512-43.504 43.504s19.512 43.504 43.504 43.504h8.592v172.336a43.824 43.824 0 0 0 43.776 43.776h723.432a43.824 43.824 0 0 0 43.776-43.776V737.88a43.568 43.568 0 0 0 38.976-43.264 43.552 43.552 0 0 0-43.504-43.504h-55.488V399.88a77.04 77.04 0 0 0 23.864 3.88zM35.296 326.808v-67.016c0-36.904 30.024-66.928 66.928-66.928h26.464a8 8 0 1 0 0-16h-15.376c33.224-75.272 108.432-128.024 195.864-128.024h355.736c87.432 0 162.64 52.752 195.864 128.024H264.712a8 8 0 1 0 0 16h607.144c36.904 0 66.928 30.024 66.928 66.928v67.016c0 33.608-27.344 60.952-60.952 60.952h-14.52a60.736 60.736 0 0 1-26.064-6.024 7.872 7.872 0 0 0-1.992-1.584 63.736 63.736 0 0 1-28.928-32.376c-0.824-2.248-1.688-4.472-2.256-6.848a8 8 0 0 0-7.784-6.152h-4.848a8 8 0 0 0-7.784 6.152 60.688 60.688 0 0 1-59.24 46.832h-14.52a60.672 60.672 0 0 1-59.232-46.832 8 8 0 0 0-7.784-6.152h-4.848a8 8 0 0 0-7.784 6.152 60.744 60.744 0 0 1-13.016 25.456 64.344 64.344 0 0 1-47.608 21.376h-13.128a60.688 60.688 0 0 1-59.24-46.832 8 8 0 0 0-7.784-6.152h-4.84a8 8 0 0 0-7.784 6.152 60.688 60.688 0 0 1-59.24 46.832h-14.52a60.672 60.672 0 0 1-59.232-46.832 8 8 0 0 0-7.784-6.152H331.2a8 8 0 0 0-7.784 6.152 60.672 60.672 0 0 1-59.232 46.832h-14.52a60.688 60.688 0 0 1-59.24-46.832 8 8 0 0 0-7.784-6.152h-4.84a8 8 0 0 0-7.784 6.152 60.848 60.848 0 0 1-14.696 27.44 8.016 8.016 0 0 0-3.208 1.784 62.576 62.576 0 0 1-36.992 17.232l-0.016 0.008c-1.448 0.104-2.856 0.368-4.328 0.368h-14.52c-33.616 0-60.96-27.344-60.96-60.952zM494.4 651.112a42.464 42.464 0 0 0 13.936-31.36 42.776 42.776 0 0 0-42.736-42.728c-16.8 0-31.232 9.832-38.208 23.976-6.976-14.136-21.4-23.976-38.208-23.976a42.648 42.648 0 0 0-35.888 19.712 42.648 42.648 0 0 0-35.896-19.712c-16.8 0-31.224 9.832-38.2 23.968-6.976-14.136-21.4-23.968-38.208-23.968a42.784 42.784 0 0 0-42.736 42.728c0 12.44 5.432 23.544 13.936 31.36h-46.568V380.584a76.128 76.128 0 0 0 14.576-20.664 76.584 76.584 0 0 0 69.448 43.84h14.52a76.592 76.592 0 0 0 69.448-43.84 76.56 76.56 0 0 0 69.44 43.84h14.52a76.6 76.6 0 0 0 69.448-43.84 76.552 76.552 0 0 0 58.264 43.04 78.808 78.808 0 0 0-6.128 11.808c-4.8 2.192-11.872 1.864-17.168 1.616-6.096-0.272-10.88-0.504-14.456 2.888a9.2 9.2 0 0 0-2.856 6.712c0 9.544 10.032 29.68 28.448 33.904v12.552c-0.584 2.168-0.88 4.408-0.88 6.664 0 11.232 6.848 20.152 15.84 21.008a69.752 69.752 0 0 0 25.152 36.104c-36.192 10.864-62.648 44.504-62.648 84.192v30.696H494.4z m-280.136-31.36c0-14.736 11.992-26.728 26.736-26.728s26.736 11.992 26.736 26.728-11.992 26.728-26.736 26.728-26.736-11.992-26.736-26.728z m64.944 18.76c2.36 4.776 5.528 9.04 9.408 12.6h-18.816a42.832 42.832 0 0 0 9.408-12.6z m11.472-18.76a26.76 26.76 0 0 1 26.728-26.728c14.744 0 26.736 11.992 26.736 26.728s-11.992 26.728-26.736 26.728a26.76 26.76 0 0 1-26.728-26.728z m62.624 23.016c1.992 3.096 4.392 5.864 7.096 8.352h-14.192c2.696-2.488 5.096-5.256 7.096-8.352z m9.16-23.016a26.76 26.76 0 0 1 26.728-26.728c14.744 0 26.736 11.992 26.736 26.728s-11.992 26.728-26.736 26.728a26.76 26.76 0 0 1-26.728-26.728z m64.928 18.752c2.36 4.776 5.528 9.04 9.416 12.608h-18.824a42.632 42.632 0 0 0 9.408-12.608z m11.472-18.752c0-14.736 11.992-26.728 26.736-26.728s26.736 11.992 26.736 26.728-11.992 26.728-26.736 26.728-26.736-11.992-26.736-26.728z m87.728 0.664c0-39.632 32.24-71.88 71.872-71.88h2.624a7.992 7.992 0 0 0 1.816-15.784 53.92 53.92 0 0 1-40.976-43.632 8.032 8.032 0 0 0-5.112-6.096 8.16 8.16 0 0 0-7.272 0.816c-0.552-0.752-1.304-2.352-1.304-4.72 0-1.024 0.168-2.032 0.48-3a7.856 7.856 0 0 0 0.408-2.504V453.04a8 8 0 0 0-7.168-7.96 61.088 61.088 0 0 1-4.504-0.624c-6.824-1.216-11.776-7.072-14.464-12.008 7.872 0.328 18.768 0.384 27.272-5.68a7.984 7.984 0 0 0 2.872-3.768 64.472 64.472 0 0 1 11.272-19.232H571c2.04 0 4.016-0.272 6.016-0.432 0.648-0.064 1.296-0.064 1.944-0.136a76.272 76.272 0 0 0 51.648-27.928c0.608-0.712 1.272-1.36 1.856-2.088 0.792 1.352 1.304 2.848 1.512 4.424a8 8 0 0 0 5.056 6.4c25.384 9.776 42.44 34.576 42.44 61.72v27.88c0 0.848 0.136 1.696 0.408 2.504 0.32 0.984 0.488 1.992 0.488 3 0 2.36-0.752 3.96-1.304 4.712a8 8 0 0 0-12.392 5.288 53.808 53.808 0 0 1-18.544 32.328h-3.496a22.424 22.424 0 0 0-19.552 11.576 7.944 7.944 0 0 0-5.512 8.44 7.952 7.952 0 0 0 2.552 4.968v104.688H526.592v-30.696z m255.176-98.968H671.816a69.344 69.344 0 0 0 10.712-21.328c8.992-0.856 15.84-9.776 15.84-21.008 0-2.248-0.296-4.488-0.888-6.664v-26.72c0-17.208-5.56-33.624-15.144-47.224a76.912 76.912 0 0 0 27.56 5.256h14.52a76.624 76.624 0 0 0 57.352-25.624v143.312zM640.128 651.112V543.96c0-3.592 2.92-6.512 6.504-6.512h134.944v113.664H640.128zM123.96 402.52a76.32 76.32 0 0 0 25.68-9.4v257.992h-25.68V402.52z m759.496 507.944a27.816 27.816 0 0 1-27.776 27.776H132.248a27.816 27.816 0 0 1-27.776-27.776V738.12h778.976v172.344z m38.976-215.848a27.536 27.536 0 0 1-27.504 27.504H79.88c-15.168 0-27.504-12.336-27.504-27.504s12.344-27.504 27.504-27.504h815.04a27.536 27.536 0 0 1 27.512 27.504z m-98.984-43.504h-25.68V366.856a76.24 76.24 0 0 0 25.68 25.72v258.536z" fill="#3A2C60" p-id="4523"></path></svg>