<?xml version="1.0" standalone="no"?><!DOCTYPE svg PUBLIC "-//W3C//DTD SVG 1.1//EN" "http://www.w3.org/Graphics/SVG/1.1/DTD/svg11.dtd"><svg t="1582239940635" class="icon" viewBox="0 0 1024 1024" version="1.1" xmlns="http://www.w3.org/2000/svg" p-id="1670" xmlns:xlink="http://www.w3.org/1999/xlink" width="70" height="70"><defs><style type="text/css"></style></defs><path d="M872.373073 222.158049v49.951219a24.97561 24.97561 0 0 1-25.000585 24.97561h-174.904195v99.902439a24.97561 24.97561 0 0 1-50.001171 0v-99.902439H447.562927a24.97561 24.97561 0 0 1-25.000586-24.97561v-49.951219h449.810732" fill="#546A79" p-id="1671"></path><path d="M401.18322 471.914146a24.97561 24.97561 0 0 0-24.97561 24.97561c0 151.477073 123.229659 274.731707 274.681756 274.731707 151.452098 0 274.65678-123.254634 274.65678-274.731707a24.97561 24.97561 0 0 0-24.975609-24.97561H401.18322" fill="#48A0DC" p-id="1672"></path><path d="M1022.301659 896.499512v49.95122c0 41.309659-33.617171 74.926829-74.951805 74.926829H97.704585a75.051707 75.051707 0 0 1-74.97678-74.926829v-849.170732c0-41.309659 33.642146-74.926829 74.97678-74.926829h849.645269a75.026732 75.026732 0 0 1 74.951805 74.926829v49.95122c0 41.309659-33.617171 74.926829-74.951805 74.926829H322.609951v599.414634h624.739903a75.026732 75.026732 0 0 1 74.951805 74.926829" fill="#98A6AF" p-id="1673"></path><path d="M172.65639 446.938537a49.95122 49.95122 0 1 1 0-99.952391 49.95122 49.95122 0 0 1 0 99.952391z m0-174.829269a49.95122 49.95122 0 1 1-0.024975-99.902439 49.95122 49.95122 0 0 1 0.024975 99.902439z" fill="#546A79" p-id="1674"></path></svg>