<?xml version="1.0" standalone="no"?><!DOCTYPE svg PUBLIC "-//W3C//DTD SVG 1.1//EN" "http://www.w3.org/Graphics/SVG/1.1/DTD/svg11.dtd"><svg t="1582239937727" class="icon" viewBox="0 0 1024 1024" version="1.1" xmlns="http://www.w3.org/2000/svg" p-id="1529" xmlns:xlink="http://www.w3.org/1999/xlink" width="70" height="70"><defs><style type="text/css"></style></defs><path d="M192.014 1002.678c0 11.782-9.546 21.312-21.328 21.312s-21.344-9.532-21.344-21.312 9.562-21.342 21.344-21.342c11.78 0 21.328 9.56 21.328 21.342zM874.69 1002.678c0 11.782-9.562 21.312-21.376 21.312-11.75 0-21.312-9.532-21.312-21.312s9.562-21.342 21.312-21.342c11.812 0 21.376 9.56 21.376 21.342z" fill="#424953" p-id="1530"></path><path d="M128.016 21.354H896v959.982H128.016z" fill="#646C77" p-id="1531"></path><path d="M725.316 405.346c0 11.782-9.532 21.344-21.312 21.344s-21.31-9.562-21.31-21.344 9.53-21.344 21.31-21.344 21.312 9.562 21.312 21.344zM789.314 405.346c0 11.782-9.532 21.344-21.312 21.344s-21.312-9.562-21.312-21.344 9.532-21.344 21.312-21.344 21.312 9.562 21.312 21.344zM853.314 405.346c0 11.782-9.532 21.344-21.312 21.344s-21.312-9.562-21.312-21.344 9.532-21.344 21.312-21.344 21.312 9.562 21.312 21.344zM725.316 469.344c0 11.782-9.532 21.344-21.312 21.344s-21.31-9.562-21.31-21.344c0-11.78 9.53-21.342 21.31-21.342s21.312 9.562 21.312 21.342zM789.314 469.344c0 11.782-9.532 21.344-21.312 21.344s-21.312-9.562-21.312-21.344c0-11.78 9.532-21.342 21.312-21.342s21.312 9.562 21.312 21.342zM853.314 469.344c0 11.782-9.532 21.344-21.312 21.344s-21.312-9.562-21.312-21.344c0-11.78 9.532-21.342 21.312-21.342s21.312 9.562 21.312 21.342zM725.316 533.344c0 11.782-9.532 21.344-21.312 21.344s-21.31-9.562-21.31-21.344S692.222 512 704.004 512s21.312 9.562 21.312 21.344zM789.314 533.344c0 11.782-9.532 21.344-21.312 21.344s-21.312-9.562-21.312-21.344S756.22 512 768.002 512s21.312 9.562 21.312 21.344zM853.314 533.344c0 11.782-9.532 21.344-21.312 21.344s-21.312-9.562-21.312-21.344S820.22 512 832.002 512s21.312 9.562 21.312 21.344z" fill="#A9B1BC" p-id="1532"></path><path d="M832.002 298.692h-127.998c-11.782 0-21.31 9.532-21.31 21.312s9.53 21.342 21.31 21.342h127.998c11.782 0 21.312-9.562 21.312-21.342s-9.53-21.312-21.312-21.312z" fill="#4FC0E8" p-id="1533"></path><path d="M703.786 725.34h128.436v127.996h-128.436z" fill="#646C77" p-id="1534"></path><path d="M789.314 746.684c0 11.782-9.532 21.312-21.312 21.312s-21.312-9.532-21.312-21.312 9.532-21.344 21.312-21.344 21.312 9.562 21.312 21.344z" fill="#A9B1BC" p-id="1535"></path><path d="M149.342 42.696h469.35v639.988H149.342z" fill="#F4F6F9" p-id="1536"></path><path d="M256.012 853.336c-23.532 0-42.67-19.124-42.67-42.654 0-23.532 19.14-42.686 42.67-42.686h255.996c23.532 0 42.686 19.154 42.686 42.686 0 23.53-19.154 42.654-42.686 42.654H256.012z" fill="#A9B1BC" p-id="1537"></path><path d="M170.686 85.352h127.998v170.654H170.686z" fill="#AC92EA" p-id="1538"></path><path d="M320.012 298.692h127.998v170.652h-127.998z" fill="#46CEAD" p-id="1539"></path><path d="M448.008 85.352h-127.996l21.326 42.5-21.326 128.152h127.996l-21.326-128.152z" fill="#5E9CEA" p-id="1540"></path><path d="M597.318 298.692h-127.982l21.344 42.498-21.344 128.154h127.982l-21.312-128.154z" fill="#4FC0E8" p-id="1541"></path><path d="M597.318 106.696c0-11.782-28.624-21.344-63.982-21.344-35.344 0-64 9.562-64 21.344v149.31h127.982V106.696z" fill="#FECD57" p-id="1542"></path><path d="M469.336 512h127.982v170.684h-127.982z" fill="#5E9CEA" p-id="1543"></path><path d="M298.684 512H170.686l21.328 42.5-21.328 128.184h127.998L277.34 554.5z" fill="#FB6D51" p-id="1544"></path><path d="M448.008 533.344c0-11.782-28.656-21.344-64-21.344-35.342 0-63.998 9.562-63.998 21.344v149.34h127.998v-149.34z" fill="#9ED36A" p-id="1545"></path><path d="M298.684 320.036c0-11.812-28.656-21.344-64-21.344-35.342 0-63.998 9.532-63.998 21.344v149.308h127.998v-149.308z" fill="#ED5564" p-id="1546"></path><path d="M106.688 0.01v1002.668h810.624V0.01H106.688z m512.006 42.686v170.654H149.342V42.696h469.352zM149.342 426.69v-170.684h469.35v170.684H149.342z m469.352 42.654v170.652H149.342v-170.652h469.352zM149.342 959.992V682.684h469.35v277.308H149.342z m725.348 0H661.318V42.696h213.372v917.296z" fill="#424953" p-id="1547"></path><path d="M682.444 703.996v170.684h171.122v-170.684h-171.122z m128.432 127.998h-85.748v-85.31h85.748v85.31z" fill="#424953" p-id="1548"></path></svg>